<?xml version="1.0" standalone="no"?>
<!-- Generator: Adobe Fireworks CS6, Export SVG Extension by Aaron Beall (http://fireworks.abeall.com) . Version: 0.6.1  -->
<!DOCTYPE svg PUBLIC "-//W3C//DTD SVG 1.1//EN" "http://www.w3.org/Graphics/SVG/1.1/DTD/svg11.dtd">
<svg viewBox="0 0 320 100"
     style="background-color:#ffffff00"
     version="1.1"
     xmlns="http://www.w3.org/2000/svg"
     x="0px"
     y="0px"
     width="320px"
     height="100px">
	<g id="layer">
		<path id="t" d="M 309.593 39.0059 C 309.593 37.6729 308.7407 37 307.0425 37 L 302.0433 37 C 301.9161 36.3398 301.8589 35.6416 301.8589 34.9116 C 301.8589 33.4644 302.0561 31.4063 302.4631 28.3848 C 302.8638 25.3633 303.0673 23.0908 303.0673 21.5801 C 303.0673 19.6504 301.9988 18.5903 299.8618 18.4063 C 299.1876 18.3428 298.6088 18.4824 298.1254 18.8125 C 297.6357 19.1489 297.394 19.498 297.394 19.8599 C 297.394 20.0439 297.4703 20.3296 297.623 20.7231 C 297.7756 21.1167 297.8519 21.4087 297.8519 21.5864 L 296.5672 38.0396 C 291.6825 37.8618 289.2402 38.9219 289.2402 41.2197 C 289.2402 42.8574 290.0214 43.5557 291.9167 43.3081 C 294.2827 43.0034 295.6438 43.0034 296 43.3081 L 296 62.2813 C 296 63.9253 296.2417 65.6582 296.7378 67.48 C 297.4756 69.9746 298.6152 71.2188 299.8491 71.2188 C 300.3388 71.2188 300.8921 70.9712 301.5091 70.4888 C 302.1197 70 302.4313 69.5176 302.4313 69.0288 C 302.4313 68.2417 302.2914 67.1118 302.0243 65.6519 C 301.7508 64.1919 301.6172 63.1318 301.6172 62.459 C 301.5027 60.8213 301.4518 57.6284 301.4518 52.8804 C 301.4518 46.7993 301.4773 43.4224 301.5409 42.7495 C 301.8398 42.5718 302.9846 42.356 304.9818 42.1084 C 306.7881 41.8672 307.9329 41.5688 308.4163 41.2007 C 309.1986 40.6548 309.593 39.8931 309.593 38.9155 L 309.593 39.0059 Z" fill="#343a40"/>
		<path id="e" d="M 283.0262 58.3901 C 282.6509 58.3901 281.875 59.1709 280.692 60.7324 C 279.1973 62.7256 277.8299 64.1919 276.5896 65.1313 C 274.5353 66.7563 272.2965 67.5625 269.8732 67.5625 C 265.1412 67.5625 262.7816 63.8936 262.7816 56.5493 C 262.7816 56.0415 263.1823 55.7813 263.99 55.7813 C 264.4225 55.7813 265.2366 56.124 266.445 56.7969 C 267.6535 57.4761 268.4422 57.8125 268.8174 57.8125 C 272.7099 57.8125 276.208 56.397 279.3055 53.5659 C 282.3965 50.7349 283.9484 47.4087 283.9484 43.5874 C 283.9484 40.6294 282.2121 37.6587 278.7458 34.6689 C 275.2731 31.6855 272.0802 30.1875 269.1672 30.1875 C 265.7581 30.1875 262.9533 33.647 260.7654 40.5596 C 259.1244 45.8726 258.304 50.8428 258.304 55.4702 C 258.304 65.9692 262.3999 71.2188 270.5919 71.2188 C 273.4604 71.2188 276.5133 70.2349 279.757 68.2671 C 283.3633 66.1152 285.1696 63.6841 285.1696 60.9736 C 285.1696 59.2534 284.4509 58.3901 283.0262 58.3901 L 283.0262 58.3901 ZM 276.4179 50.8301 C 274.8024 53.0518 272.7671 54.1563 270.3248 54.1563 C 268.5884 54.1563 267.1701 53.5405 266.0634 52.3027 C 264.9568 51.0713 264.4098 49.5288 264.4098 47.688 C 264.4098 44.8379 265.0331 42.0767 266.2924 39.4106 C 267.7807 36.2432 269.7269 34.6563 272.1184 34.6563 C 274.0837 34.6563 275.6674 35.6274 276.8631 37.5571 C 278.0589 39.4932 278.6567 41.5688 278.6567 43.7905 C 278.6567 46.4565 277.9062 48.7988 276.4179 50.8301 L 276.4179 50.8301 Z" fill="#343a40"/>
		<path id="j" d="M 253.2094 22.0308 C 252.2553 21.2437 251.1805 20.8438 249.9911 20.8438 C 248.2039 20.8438 247.3134 21.7578 247.3134 23.5859 C 247.4343 24.1953 247.4343 24.627 247.3134 24.8682 C 248.9798 27.0645 250.2582 28.1563 251.155 28.1563 C 251.9882 28.1563 252.7769 27.8516 253.521 27.2422 C 254.2652 26.6328 254.6404 25.9028 254.6404 25.0459 C 254.6404 23.8271 254.1634 22.8242 253.2094 22.0308 L 253.2094 22.0308 ZM 251.8419 33.2534 C 251.6002 33.2534 250.5317 33.501 248.6364 33.9834 L 247.9049 34.8086 L 248.5346 74.9702 C 248.5346 86.0088 245.3608 91.5313 239.0133 91.5313 C 234.8664 91.5313 231.3874 89.8047 228.5762 86.3643 C 228.3981 86.3008 228.0928 86.269 227.6603 86.269 C 226.3819 86.269 225.7395 86.7896 225.7395 87.8433 C 225.7395 89.5698 227.8765 91.3979 232.1443 93.3149 C 235.9922 95.105 238.9243 96 240.9341 96 C 244.7121 96 247.765 94.229 250.0865 90.687 C 252.0327 87.6274 253.0122 84.0854 253.0122 80.061 C 253.0122 75.9097 252.9422 69.7017 252.8087 61.4243 C 252.6688 53.147 252.6052 46.9326 252.6052 42.7813 C 252.6052 40.1533 253.0822 37.3159 254.0426 34.2627 C 253.3684 33.5898 252.637 33.2534 251.8419 33.2534 L 251.8419 33.2534 Z" fill="#343a40"/>
		<path id="d" d="M 236.2466 8.7197 C 235.3816 7.8691 234.364 7.4375 233.1937 7.4375 C 232.4559 7.4375 231.8708 7.6533 231.4383 8.085 C 231.4383 22.2148 231.133 31.3618 230.5287 35.5386 C 228.0482 33.3931 226.6236 32.1997 226.261 31.9712 C 224.5056 30.7842 222.7756 30.1875 221.0838 30.1875 C 217.0896 30.1875 213.8776 33.7612 211.4607 40.9023 C 209.5781 46.3486 208.6431 51.6172 208.6431 56.6953 C 208.6431 60.8721 209.559 64.23 211.3908 66.769 C 213.5278 69.7397 216.5807 71.2188 220.5495 71.2188 C 223.8441 71.2188 227.2977 68.8955 230.8976 64.2427 C 231.2665 66.7056 231.451 68.54 231.451 69.7334 C 231.6291 70.3301 232.1061 70.9331 232.8693 71.5361 C 233.6326 72.1328 234.3195 72.4375 234.93 72.4375 C 235.5979 72.4375 236.1448 72.1011 236.5773 71.4282 C 235.318 68.7495 234.6947 64.1411 234.6947 57.6094 C 234.6947 56.5684 234.8792 51.1665 235.248 41.4038 C 235.6742 30.7271 235.9795 24.4365 236.1639 22.5449 C 236.2848 21.8149 236.5583 20.0122 236.9908 17.1431 C 237.3596 14.9468 237.5441 13.1504 237.5441 11.7412 C 237.5441 10.5859 237.1116 9.5767 236.2466 8.7197 L 236.2466 8.7197 ZM 228.4044 59.209 C 226.4264 65.0488 223.5261 67.9688 219.6973 67.9688 C 217.3503 67.9688 215.5885 66.6929 214.4182 64.1348 C 213.5533 62.1924 213.1208 59.8755 213.1208 57.1968 C 213.1208 53.0645 213.8586 48.6528 215.3405 43.9683 C 217.1913 37.7603 219.6591 34.6563 222.7502 34.6563 C 225.2815 34.6563 227.285 35.9385 228.7733 38.4902 C 230.0072 40.623 230.6241 43.0225 230.6241 45.7012 C 230.6241 50.5127 229.88 55.0132 228.4044 59.209 L 228.4044 59.209 Z" fill="#343a40"/>
		<path id="a" d="M 204 43 C 203.9364 39.6294 201.8313 36.7476 198.7275 34.3545 C 195.8018 32.1455 192.6026 31 189.1299 31 C 186.872 31 184.983 31.8315 183.4566 33.4883 C 182.2354 34.8467 181.1096 36.8271 180.0729 39.436 C 179.0362 42.0513 178.521 44.2158 178.521 45.936 C 178.521 46.4883 178.8645 47.1357 179.5641 47.8721 C 180.2637 48.6084 180.8998 48.9766 181.4849 48.9766 C 181.9492 48.9766 182.1845 48.7354 182.1845 48.2402 C 182.0128 48.1768 181.9301 48.0244 181.9301 47.7769 C 181.9301 47.5356 182.0128 47.3516 182.1845 47.2246 C 182.1845 44.7744 183.075 42.1909 184.8622 39.4868 C 186.8275 36.5415 188.9836 35.0625 191.3242 35.0625 C 194.5806 35.0625 196.7686 36.7891 197.8753 40.2358 C 198.5494 42.2925 198.8929 45.0396 198.8929 49.0957 C 198.8929 50.0034 198.7085 50.6382 198.3459 51 L 189.2762 51 C 186.5922 51 183.6601 52.1108 180.4863 54.3262 C 177.0009 56.7319 175.2646 59.5073 175.2646 62.0337 C 175.2646 64.6235 176.7465 66.7754 179.7168 68.502 C 182.3117 70.0381 184.9958 70.8125 187.7815 70.8125 C 191.8012 70.8125 195.541 69.5938 199.001 67.1563 C 199.1855 67.5244 199.2809 68.0195 199.2809 68.6289 C 199.2809 70.8379 199.3063 72.0313 199.3699 72.2217 C 199.6498 73.4468 200.7245 74.0625 202.1046 74.0625 C 203.364 74.0625 204 73.6309 204 72.7739 L 204 43 L 204 43 ZM 195.3502 64.5347 C 192.9906 66.2295 190.491 67.0737 187.8579 67.0737 C 186.077 67.0737 184.5442 66.6802 183.2594 65.8931 C 181.7266 64.9917 180.9634 63.7222 180.9634 62.0845 C 180.9634 59.4312 182.4008 57.438 185.282 56.105 C 187.5462 55.0767 190.1857 54.5625 193.1941 54.5625 C 196.9912 54.5625 198.8929 55.7749 198.8929 58.187 C 198.8929 60.7261 197.7099 62.8462 195.3502 64.5347 L 195.3502 64.5347 Z" fill="#343a40"/>
		<path id="w" d="M 169.4768 15.4609 C 168.5736 9.3037 167.2761 6.2188 165.597 6.2188 C 163.9688 6.2188 163.161 7.8438 163.161 11.0811 C 163.161 11.9951 163.4536 13.2837 164.0388 14.9341 C 164.5031 16.2798 164.9673 17.5938 165.438 18.876 C 166.0168 20.8311 166.3094 23.4907 166.3094 26.855 C 166.3094 32.8472 165.5779 39.7915 164.1214 47.6753 C 162.1116 58.498 159.4657 63.9063 156.1839 63.9063 C 153.8115 63.9063 152.0179 59.4502 150.8031 50.5254 C 150.0144 44.3555 149.6201 38.3315 149.6201 32.4663 C 149.6201 28.6196 150.1925 25.8076 151.3501 24.0303 C 151.2865 22.8115 150.6568 21.7324 149.4611 20.7803 C 148.2654 19.8345 147.0187 19.3584 145.734 19.3584 C 145.3015 19.3584 144.6909 19.6631 143.8959 20.2725 C 143.0945 20.8818 142.7001 21.396 142.7001 21.8149 C 142.7001 28.7466 141.5998 37.4937 139.4119 48.0562 C 138.8586 50.8491 138.0381 53.8262 136.9441 56.981 C 135.4177 61.6021 134.082 63.9063 132.9244 63.9063 C 130.6666 63.9063 129.3469 58.3203 128.1894 47.1357 C 127.3943 39.5439 127 31.9458 127 24.3477 L 127 20.8818 C 126.7965 19.1235 126.7965 17.6953 127 16.5972 C 127.1208 15.1436 126.7866 14.1597 127.1237 13.6392 C 127.4545 13.1187 128.0841 12.7695 129 12.5854 L 129 10.1289 C 127.5371 9.3418 126.2842 8.9419 125.2475 8.9419 C 122.4362 8.9419 121.1262 10.8018 121.1262 14.5151 C 121.1262 24.2651 121.5205 33.8945 122.3156 43.397 C 123.5304 57.3491 125.3558 65.6392 127.7981 68.2544 C 129.3754 69.9619 131.08 70.8125 132.9117 70.8125 C 136.2 70.8125 139.0621 65.1504 141.5044 53.8135 C 143.7559 43.5811 144.9771 38.103 145.1615 37.3667 C 145.4605 38.5283 145.9184 42.3687 146.529 48.8877 C 147.076 55.0449 147.8965 59.5898 148.9968 62.5098 C 150.5805 66.9658 153.0482 69.1875 156.4001 69.1875 C 161.0304 69.1875 164.7129 63.3032 167.4542 51.522 C 169.4004 42.9844 170.3799 35.0815 170.3799 27.8198 C 170.3799 23.8589 170.0746 19.7393 169.4768 15.4609 L 169.4768 15.4609 Z" fill="#343a40"/>
		<path id="logo" d="M 74.4029 8.819 C 78.7587 10.6805 83.7367 15.0241 88.0925 18.1266 C 88.7147 18.7471 107.3822 37.9828 107.3822 41.7058 C 107.3822 46.6698 82.4922 63.4235 82.4922 75.2131 C 82.4922 82.0386 86.2257 87.6232 89.337 95.0692 C 89.337 95.0692 89.337 95.6897 88.0925 95.6897 C 84.9812 95.6897 63.2024 80.7976 62.5802 80.7976 C 59.4689 79.5566 55.1132 78.3156 52.6242 77.6951 C 47.6462 77.0746 41.4237 75.2131 36.4457 70.8695 C 33.9566 69.008 10.3111 47.2903 10.3111 41.7058 C 10.3111 40.4648 12.1779 36.7418 14.0446 34.8802 C 21.5116 24.3317 33.9566 11.301 44.5349 8.1985 C 48.2684 6.9575 56.9799 5.7165 58.2244 5.7165 C 63.2024 5.7165 70.0472 6.337 74.4029 8.819 ZM 82.4922 40.4648 C 82.4922 54.7364 70.0472 65.285 58.2244 65.285 C 42.6682 65.285 34.5789 53.4954 34.5789 40.4648 C 34.5789 26.8137 44.5349 16.8856 58.2244 16.8856 C 73.1584 16.8856 82.4922 28.6752 82.4922 40.4648 ZM 71.9139 40.4648 C 71.9139 49.1519 64.4469 54.1159 58.2244 54.1159 C 49.5129 54.1159 45.1572 46.6698 45.1572 40.4648 C 45.1572 33.0187 52.0019 27.4342 58.2244 27.4342 C 66.3137 27.4342 71.9139 34.2597 71.9139 40.4648 Z" fill="#343a40"/>
		<path id="eye" d="M 40 41 C 40 30.5065 48.5065 22 59 22 C 69.4935 22 78 30.5065 78 41 C 78 51.4935 69.4935 60 59 60 C 48.5065 60 40 51.4935 40 41 Z" stroke="#e7eaf0" stroke-width="14" fill="none"/>
	</g>
</svg>